<mxfile host="app.diagrams.net" modified="2024-04-10T10:33:10.722Z" agent="Mozilla/5.0 (X11; Linux x86_64) AppleWebKit/537.36 (KHTML, like Gecko) Chrome/117.0.0.0 Safari/537.36" etag="_yZNJkMl3TTW0a1L9ehN" version="24.2.1" type="device">
  <diagram name="StrÃ¡nka-1" id="amLyIMB_HBfdfTEjr-Ie">
    <mxGraphModel dx="1602" dy="803" grid="1" gridSize="10" guides="1" tooltips="1" connect="1" arrows="1" fold="1" page="1" pageScale="1" pageWidth="827" pageHeight="1169" math="0" shadow="0">
      <root>
        <mxCell id="0" />
        <mxCell id="1" parent="0" />
        <mxCell id="pMlhrJA8G9kc82RZuo3V-6" value="" style="edgeStyle=orthogonalEdgeStyle;rounded=0;orthogonalLoop=1;jettySize=auto;html=1;" edge="1" parent="1" source="pMlhrJA8G9kc82RZuo3V-1" target="pMlhrJA8G9kc82RZuo3V-5">
          <mxGeometry relative="1" as="geometry" />
        </mxCell>
        <mxCell id="pMlhrJA8G9kc82RZuo3V-7" value="&lt;font style=&quot;font-size: 18px;&quot;&gt;Bboxes&lt;/font&gt;" style="edgeLabel;html=1;align=center;verticalAlign=middle;resizable=0;points=[];" vertex="1" connectable="0" parent="pMlhrJA8G9kc82RZuo3V-6">
          <mxGeometry x="-0.1059" y="1" relative="1" as="geometry">
            <mxPoint y="-14" as="offset" />
          </mxGeometry>
        </mxCell>
        <mxCell id="pMlhrJA8G9kc82RZuo3V-1" value="&lt;font style=&quot;font-size: 18px;&quot;&gt;Object detector (YOLO, DINO)&lt;/font&gt;" style="rounded=1;whiteSpace=wrap;html=1;" vertex="1" parent="1">
          <mxGeometry x="170" y="260" width="130" height="70" as="geometry" />
        </mxCell>
        <mxCell id="pMlhrJA8G9kc82RZuo3V-2" value="" style="endArrow=classic;html=1;rounded=0;entryX=0;entryY=0.5;entryDx=0;entryDy=0;" edge="1" parent="1" target="pMlhrJA8G9kc82RZuo3V-1">
          <mxGeometry width="50" height="50" relative="1" as="geometry">
            <mxPoint x="40" y="295" as="sourcePoint" />
            <mxPoint x="440" y="390" as="targetPoint" />
          </mxGeometry>
        </mxCell>
        <mxCell id="pMlhrJA8G9kc82RZuo3V-3" value="&lt;font style=&quot;font-size: 18px;&quot;&gt;Input frame&lt;/font&gt;" style="edgeLabel;html=1;align=center;verticalAlign=middle;resizable=0;points=[];" vertex="1" connectable="0" parent="pMlhrJA8G9kc82RZuo3V-2">
          <mxGeometry x="-0.1846" y="1" relative="1" as="geometry">
            <mxPoint y="-14" as="offset" />
          </mxGeometry>
        </mxCell>
        <mxCell id="pMlhrJA8G9kc82RZuo3V-9" value="" style="edgeStyle=orthogonalEdgeStyle;rounded=0;orthogonalLoop=1;jettySize=auto;html=1;entryX=0;entryY=0.5;entryDx=0;entryDy=0;" edge="1" parent="1" source="pMlhrJA8G9kc82RZuo3V-5" target="pMlhrJA8G9kc82RZuo3V-12">
          <mxGeometry relative="1" as="geometry">
            <mxPoint x="660" y="310" as="targetPoint" />
          </mxGeometry>
        </mxCell>
        <mxCell id="pMlhrJA8G9kc82RZuo3V-10" value="&lt;font style=&quot;font-size: 18px;&quot;&gt;Measurements&lt;/font&gt;" style="edgeLabel;html=1;align=center;verticalAlign=middle;resizable=0;points=[];" vertex="1" connectable="0" parent="pMlhrJA8G9kc82RZuo3V-9">
          <mxGeometry x="-0.45" y="-1" relative="1" as="geometry">
            <mxPoint x="32" y="-16" as="offset" />
          </mxGeometry>
        </mxCell>
        <mxCell id="pMlhrJA8G9kc82RZuo3V-5" value="&lt;font style=&quot;font-size: 18px;&quot;&gt;Object segmentation&lt;br&gt;(YOLO, SAM)&lt;/font&gt;" style="whiteSpace=wrap;html=1;rounded=1;" vertex="1" parent="1">
          <mxGeometry x="385" y="265" width="120" height="60" as="geometry" />
        </mxCell>
        <mxCell id="pMlhrJA8G9kc82RZuo3V-13" style="edgeStyle=orthogonalEdgeStyle;rounded=0;orthogonalLoop=1;jettySize=auto;html=1;entryX=0.5;entryY=0;entryDx=0;entryDy=0;" edge="1" parent="1" source="pMlhrJA8G9kc82RZuo3V-8" target="pMlhrJA8G9kc82RZuo3V-12">
          <mxGeometry relative="1" as="geometry" />
        </mxCell>
        <mxCell id="pMlhrJA8G9kc82RZuo3V-8" value="&lt;font style=&quot;font-size: 18px;&quot;&gt;PHD filter&amp;nbsp;&lt;br&gt;prediction step&lt;/font&gt;" style="whiteSpace=wrap;html=1;rounded=1;" vertex="1" parent="1">
          <mxGeometry x="650" y="170" width="120" height="60" as="geometry" />
        </mxCell>
        <mxCell id="pMlhrJA8G9kc82RZuo3V-15" value="" style="edgeStyle=orthogonalEdgeStyle;rounded=0;orthogonalLoop=1;jettySize=auto;html=1;" edge="1" parent="1" source="pMlhrJA8G9kc82RZuo3V-12" target="pMlhrJA8G9kc82RZuo3V-14">
          <mxGeometry relative="1" as="geometry" />
        </mxCell>
        <mxCell id="pMlhrJA8G9kc82RZuo3V-12" value="&lt;font style=&quot;font-size: 18px;&quot;&gt;PHD filter&lt;br&gt;update step&lt;/font&gt;" style="rounded=1;whiteSpace=wrap;html=1;" vertex="1" parent="1">
          <mxGeometry x="650" y="265" width="120" height="60" as="geometry" />
        </mxCell>
        <mxCell id="pMlhrJA8G9kc82RZuo3V-17" value="" style="edgeStyle=orthogonalEdgeStyle;rounded=0;orthogonalLoop=1;jettySize=auto;html=1;" edge="1" parent="1" source="pMlhrJA8G9kc82RZuo3V-14" target="pMlhrJA8G9kc82RZuo3V-16">
          <mxGeometry relative="1" as="geometry" />
        </mxCell>
        <mxCell id="pMlhrJA8G9kc82RZuo3V-14" value="&lt;font style=&quot;font-size: 18px;&quot;&gt;PHD filter&lt;br&gt;merging &lt;br&gt;components&lt;/font&gt;" style="whiteSpace=wrap;html=1;rounded=1;" vertex="1" parent="1">
          <mxGeometry x="650" y="405" width="120" height="60" as="geometry" />
        </mxCell>
        <mxCell id="pMlhrJA8G9kc82RZuo3V-16" value="&lt;font style=&quot;font-size: 18px;&quot;&gt;PHD filter&lt;br&gt;pruning&amp;nbsp;&lt;br&gt;components&lt;/font&gt;" style="whiteSpace=wrap;html=1;rounded=1;" vertex="1" parent="1">
          <mxGeometry x="430" y="405" width="120" height="60" as="geometry" />
        </mxCell>
      </root>
    </mxGraphModel>
  </diagram>
</mxfile>
